<svg id="snail" xmlns="http://www.w3.org/2000/svg" width="256" height="256" viewBox="0 0 256 256"><path d="M236.8,64.9a13.3,13.3,0,0,0-13.3,13.2,14,14,0,0,0,6.4,11.5L221.5,116c-1.5-.5-3.1-.7-4.3-1l-5.4-20.4a13.3,13.3,0,0,0-6.4-24.9,13.3,13.3,0,0,0,0,26.5h.3l5.1,19.1c-8.4,2-15.3,9.9-21.6,17s-14.1,15.8-22.5,17.1c-2-22.9-9.6-41-22.9-54C122.4,74.5,94.7,74.8,93.7,74.8a60.2,60.2,0,0,0-60.1,60.1,43,43,0,0,0,12.5,30.3C25.2,171.3,12,178.4,6.6,186a3,3,0,0,0-.2,3.4,3.1,3.1,0,0,0,2.8,1.7H222.5a3.3,3.3,0,0,0,3.1-2.8,3.3,3.3,0,0,0-2.3-3.5c-5.4-1.6-13.8-5.4-15.6-8.9a2.7,2.7,0,0,1,0-1.8c.8-1.8,3.9-5.6,7.2-9.4,8.6-10.2,20.3-24.5,18.8-35.7a14.4,14.4,0,0,0-6.6-10.2h-.3l8.9-27.5h1.1a13.2,13.2,0,0,0,0-26.4Zm-38.5,18a7.1,7.1,0,0,1,7.1-7.1,7,7,0,0,1,7.2,7.1,6.9,6.9,0,0,1-7.2,6.9A7,7,0,0,1,198.3,82.9ZM93.4,81.4h0c2.3,0,27,.5,45.6,18.8,13.7,13.5,20.9,33.4,21.6,58.9H111.8a43.8,43.8,0,0,0,7.3-24,26,26,0,0,0-51.9,0,3.1,3.1,0,0,0,3.1,3.1,3.2,3.2,0,0,0,3-3.1,19.6,19.6,0,1,1,39.2,0,36.7,36.7,0,1,1-73.3,0A54.3,54.3,0,0,1,93.4,81.4ZM227.6,130c1.3,8.7-9.9,21.9-17.3,30.8-3.8,4.6-6.9,8.2-7.9,10.7a7.9,7.9,0,0,0,0,7.2c1,2.3,3.3,4.5,5.8,6.3H16.8c6.9-5.1,18.8-10.2,34.9-14.5a42.4,42.4,0,0,0,54.7-5.1h57.3a3,3,0,0,0,3-3c0-2.1,0-4.4-.2-6.4,10.9-1.5,19.3-10.9,27-19.3,11.2-12.8,18.6-19.9,30-12.3A7,7,0,0,1,227.6,130Zm9.2-44.8a7.1,7.1,0,0,1-7.2-7.1,7.2,7.2,0,0,1,14.3,0A7.1,7.1,0,0,1,236.8,85.2Z" fill="#fff"/></svg>